HIERARCHY
ROOT root
{
	OFFSET 0.00 0.00 0.00
	CHANNELS 6 Xposition Yposition Zposition Zrotation Xrotation Yrotation
	JOINT lowerback
	{
		OFFSET 0 0 0
		CHANNELS 6 Xposition Yposition Zposition Zrotation Xrotation Yrotation
		JOINT upperback
		{
			OFFSET -0.214371 12.3768 -1.12219
			CHANNELS 6 Xposition Yposition Zposition Zrotation Xrotation Yrotation
			JOINT thorax
			{
				OFFSET -0.00137213 12.3873 0.296195
				CHANNELS 6 Xposition Yposition Zposition Zrotation Xrotation Yrotation
				JOINT lowerneck
				{
					OFFSET 0.0883157 12.5016 0.82912
					CHANNELS 6 Xposition Yposition Zposition Zrotation Xrotation Yrotation
					JOINT upperneck
					{
						OFFSET -1 10.1794 0.943522
						CHANNELS 6 Xposition Yposition Zposition Zrotation Xrotation Yrotation
						JOINT head
						{
							OFFSET 0.667525 10.2797 -1.57149
							CHANNELS 6 Xposition Yposition Zposition Zrotation Xrotation Yrotation
							End Site
							{
								OFFSET 0 0 0
							}
						}
					}
				}
				JOINT lclavicle
				{
					OFFSET 0.0883157 12.5016 0.82912
					CHANNELS 6 Xposition Yposition Zposition Zrotation Xrotation Yrotation
					JOINT lhumerus
					{
						OFFSET 20.61 4.45006 1.43784
						CHANNELS 6 Xposition Yposition Zposition Zrotation Xrotation Yrotation
						JOINT lradius
						{
							OFFSET 0 -30.3438 0
							CHANNELS 6 Xposition Yposition Zposition Zrotation Xrotation Yrotation
							JOINT lwrist
							{
								OFFSET 0 -18.964 0
								CHANNELS 6 Xposition Yposition Zposition Zrotation Xrotation Yrotation
								JOINT lhand
								{
									OFFSET 0 -9.48199 0
									CHANNELS 6 Xposition Yposition Zposition Zrotation Xrotation Yrotation
									JOINT lfingers
									{
										OFFSET 0 -3.17138 0
										CHANNELS 6 Xposition Yposition Zposition Zrotation Xrotation Yrotation
										End Site
										{
											OFFSET 0 -2.55685 0
										}
									}
								}
								JOINT lthumb
								{
									OFFSET 0 -9.48199 0
									CHANNELS 6 Xposition Yposition Zposition Zrotation Xrotation Yrotation
									End Site
									{
										OFFSET 0 -3.67114 0
									}
								}
							}
						}
					}
				}
				JOINT rclavicle
				{
					OFFSET 0.0883157 12.5016 0.82912
					CHANNELS 6 Xposition Yposition Zposition Zrotation Xrotation Yrotation
					JOINT rhumerus
					{
						OFFSET -20.61 4.45 1.44
						CHANNELS 6 Xposition Yposition Zposition Zrotation Xrotation Yrotation
						JOINT rradius
						{
							OFFSET 0 -29.5102 0
							CHANNELS 6 Xposition Yposition Zposition Zrotation Xrotation Yrotation
							JOINT rwrist
							{
								OFFSET 0 -19.2342 0
								CHANNELS 6 Xposition Yposition Zposition Zrotation Xrotation Yrotation
								JOINT rhand
								{
									OFFSET 0 -9.61712 0
									CHANNELS 6 Xposition Yposition Zposition Zrotation Xrotation Yrotation
									JOINT rfingers
									{
										OFFSET 0 -3.29215 0
										CHANNELS 6 Xposition Yposition Zposition Zrotation Xrotation Yrotation
										End Site
										{
											OFFSET 0 -2.557 0
										}
									}
								}
								JOINT rthumb
								{
									OFFSET 0 -9.61712 0
									CHANNELS 6 Xposition Yposition Zposition Zrotation Xrotation Yrotation
									End Site
									{
										OFFSET 0 -3.671 0
									}
								}
							}
						}
					}
				}
			}
		}
	}
	JOINT rfemur
	{
		OFFSET -8.46272 -9.62775 4.76248
		CHANNELS 6 Xposition Yposition Zposition Zrotation Xrotation Yrotation
		JOINT rtibia
		{
			OFFSET 1.00552e-005 -38.0331 0
			CHANNELS 6 Xposition Yposition Zposition Zrotation Xrotation Yrotation
			JOINT rfoot
			{
				OFFSET 1.14428e-005 -43.2815 0
				CHANNELS 6 Xposition Yposition Zposition Zrotation Xrotation Yrotation
				JOINT rtoes
				{
					OFFSET 0 -14.1868 -3.08763
					CHANNELS 6 Xposition Yposition Zposition Zrotation Xrotation Yrotation
					End Site
					{
						OFFSET 0 -7.27332 0
					}
				}
			}
		}
	}
	JOINT lfemur
	{
		OFFSET 9.10607 -9.62778 4.76249
		CHANNELS 6 Xposition Yposition Zposition Zrotation Xrotation Yrotation
		JOINT ltibia
		{
			OFFSET -1.01399e-005 -38.3535 0
			CHANNELS 6 Xposition Yposition Zposition Zrotation Xrotation Yrotation
			JOINT lfoot
			{
				OFFSET -1.12937e-005 -42.7176 0
				CHANNELS 6 Xposition Yposition Zposition Zrotation Xrotation Yrotation
				JOINT ltoes
				{
					OFFSET 0 -13.9965 -2.83857
					CHANNELS 6 Xposition Yposition Zposition Zrotation Xrotation Yrotation
					End Site
					{
						OFFSET 0 -7.16348 0
					}
				}
			}
		}
	}
}
MOTION
Frames: 7
Frame Time: 0.00833333
-2.34829	92.5641	29.2286	0.309832	2.44428	1.56536	0 0 0 0.489484	10.6736	-0.0654631	-0.214371 12.3768 -1.12219 0.0515268	12.7549	-0.854921	-0.00137213 12.3873 0.296195 -0.330025	7.52919	-0.694004	0.0883157 12.5016 0.82912 -1.20988	-1.4338	-2.15914	-1 10.1794 0.943522 5.60398	4.7998	-3.15057	0.667525 10.2797 -1.57149 1.8737	1.87158	-1.49289	0.0883157 12.5016 0.82912 -15	0	-0	20.61 4.45006 1.43784 18.204	-14.6104	175.148	0 -30.3438 0 -0	46.2028	-0	0 -18.964 0 1.38164e-014	-1.73146e-015	-104.286	0 -9.48199 0 1.22245	4.37968	-2.58917e-014	0 -3.17138 0 -0	7.12502	-0	0 -9.48199 0 25	15	-1.36605e-015	0.0883157 12.5016 0.82912 15	0	-0	-20.61 4.45 1.44 -16.8603	-8.39311	175.964	0 -29.5102 0 -0	35.9815	-0	0 -19.2342 0 4.99886e-016	-2.601e-015	111.758	0 -9.61712 0 1.22	4.38	-0	0 -3.29215 0 -0	7.12502	-0	0 -9.61712 0 25	15	-7.97034e-015	-8.46272 -9.62775 4.76248 -3.63472	-27.484	-5.29532	1.00552e-005 -38.0331 0 -0	50.5443	-0	1.14428e-005 -43.2815 0 -33.0738	-82.2639	-33.3141	0 -14.1868 -3.08763 -0	-28.1163	-0	9.10607 -9.62778 4.76249 5.4151	-13.6895	9.95261	-1.01399e-005 -38.3535 0 -0	40.7693	-0	-1.12937e-005 -42.7176 0 37.4632	-84.7952	37.5777	0 -13.9965 -2.83857 -0	-41.2655	-0
-2.44057	92.5917	29.4804	0.383347	2.49756	1.69547	0 0 0 0.6	10.6407	-0.124196	-0.214371 12.3768 -1.12219 0.130839	12.7646	-0.93155	-0.00137213 12.3873 0.296195 -0.313021	7.55835	-0.726117	0.0883157 12.5016 0.82912 -1.14859	-1.43515	-2.15107	-1 10.1794 0.943522 5.61206	4.82791	-3.14426	0.667525 10.2797 -1.57149 1.86546	1.87956	-1.48898	0.0883157 12.5016 0.82912 -15	0	-0	20.61 4.45006 1.43784 18.1086	-14.5702	175.04	0 -30.3438 0 -0	46.224	-0	0 -18.964 0 1.38176e-014	-1.72695e-015	-104.248	0 -9.48199 0 1.22245	4.37968	-2.58917e-014	0 -3.17138 0 -0	7.12502	-0	0 -9.48199 0 25	15	-1.36605e-015	0.0883157 12.5016 0.82912 15	0	-0	-20.61 4.45 1.44 -16.9522	-8.5132	175.849	0 -29.5102 0 -0	35.6608	-0	0 -19.2342 0 5.05302e-016	-2.61453e-015	111.877	0 -9.61712 0 1.22	4.38	-0	0 -3.29215 0 -0	7.12502	-0	0 -9.61712 0 25	15	-7.97034e-015	-8.46272 -9.62775 4.76248 -3.64427	-27.326	-5.2742	1.00552e-005 -38.0331 0 -0	50.5104	-0	1.14428e-005 -43.2815 0 -33.8564	-82.3881	-34.0918	0 -14.1868 -3.08763 -0	-28.0728	-0	9.10607 -9.62778 4.76249 5.41731	-13.8878	9.90153	-1.01399e-005 -38.3535 0 -0	41.246	-0	-1.12937e-005 -42.7176 0 37.0832	-84.5259	37.2094	0 -13.9965 -2.83857 -0	-41.6554	-0
-2.53409	92.6171	29.7313	0.455785	2.5436	1.83647	0 0 0 0.708246	10.6093	-0.182044	-0.214371 12.3768 -1.12219 0.211791	12.7753	-1.00739	-0.00137213 12.3873 0.296195 -0.293025	7.58793	-0.758148	0.0883157 12.5016 0.82912 -1.08682	-1.43585	-2.14348	-1 10.1794 0.943522 5.626	4.86392	-3.13932	0.667525 10.2797 -1.57149 1.85896	1.89001	-1.48523	0.0883157 12.5016 0.82912 -15	0	-0	20.61 4.45006 1.43784 18.0049	-14.5239	174.937	0 -30.3438 0 -0	46.2105	-0	0 -18.964 0 1.3818e-014	-1.72541e-015	-104.235	0 -9.48199 0 1.22245	4.37968	-2.58917e-014	0 -3.17138 0 -0	7.12502	-0	0 -9.48199 0 25	15	-1.36605e-015	0.0883157 12.5016 0.82912 15	0	-0	-20.61 4.45 1.44 -17.0442	-8.63439	175.725	0 -29.5102 0 -0	35.3433	-0	0 -19.2342 0 5.10655e-016	-2.62782e-015	111.994	0 -9.61712 0 1.22	4.38	-0	0 -3.29215 0 -0	7.12502	-0	0 -9.61712 0 25	15	-7.97034e-015	-8.46272 -9.62775 4.76248 -3.65493	-27.1562	-5.25715	1.00552e-005 -38.0331 0 -0	50.4733	-0	1.14428e-005 -43.2815 0 -34.7464	-82.4997	-34.9776	0 -14.1868 -3.08763 -0	-28.042	-0	9.10607 -9.62778 4.76249 5.43242	-14.1272	9.87857	-1.01399e-005 -38.3535 0 -0	41.8002	-0	-1.12937e-005 -42.7176 0 36.4762	-84.2294	36.6156	0 -13.9965 -2.83857 -0	-41.9719	-0
-2.62874	92.6391	29.981	0.525482	2.58241	1.98618	0 0 0 0.814972	10.5804	-0.238233	-0.214371 12.3768 -1.12219 0.29389	12.786	-1.08124	-0.00137213 12.3873 0.296195 -0.270863	7.61613	-0.789396	0.0883157 12.5016 0.82912 -1.02583	-1.43572	-2.1365	-1 10.1794 0.943522 5.64658	4.90609	-3.13579	0.667525 10.2797 -1.57149 1.85471	1.90234	-1.48285	0.0883157 12.5016 0.82912 -15	0	-0	20.61 4.45006 1.43784 17.8929	-14.4685	174.841	0 -30.3438 0 -0	46.167	-0	0 -18.964 0 1.38176e-014	-1.72695e-015	-104.248	0 -9.48199 0 1.22245	4.37968	-2.58917e-014	0 -3.17138 0 -0	7.12502	-0	0 -9.48199 0 25	15	-1.36605e-015	0.0883157 12.5016 0.82912 15	0	-0	-20.61 4.45 1.44 -17.1352	-8.75291	175.591	0 -29.5102 0 -0	35.0337	-0	0 -19.2342 0 5.15758e-016	-2.64042e-015	112.105	0 -9.61712 0 1.22	4.38	-0	0 -3.29215 0 -0	7.12502	-0	0 -9.61712 0 25	15	-7.97034e-015	-8.46272 -9.62775 4.76248 -3.66428	-26.9739	-5.24336	1.00552e-005 -38.0331 0 -0	50.4323	-0	1.14428e-005 -43.2815 0 -35.7431	-82.5997	-35.971	0 -14.1868 -3.08763 -0	-28.023	-0	9.10607 -9.62778 4.76249 5.46238	-14.4055	9.88586	-1.01399e-005 -38.3535 0 -0	42.4264	-0	-1.12937e-005 -42.7176 0 35.7106	-83.9108	35.8645	0 -13.9965 -2.83857 -0	-42.2066	-0
-2.72329	92.6566	30.2257	0.59089	2.61422	2.14172	0 0 0 0.921213	10.5552	-0.291942	-0.214371 12.3768 -1.12219 0.376457	12.7957	-1.15179	-0.00137213 12.3873 0.296195 -0.247713	7.64115	-0.819092	0.0883157 12.5016 0.82912 -0.966617	-1.43135	-2.13019	-1 10.1794 0.943522 5.6744	4.95199	-3.13562	0.667525 10.2797 -1.57149 1.8538	1.91572	-1.48232	0.0883157 12.5016 0.82912 -15	0	-0	20.61 4.45006 1.43784 17.7727	-14.4011	174.757	0 -30.3438 0 -0	46.0975	-0	0 -18.964 0 1.38165e-014	-1.73134e-015	-104.285	0 -9.48199 0 1.22245	4.37968	-2.58917e-014	0 -3.17138 0 -0	7.12502	-0	0 -9.48199 0 25	15	-1.36605e-015	0.0883157 12.5016 0.82912 15	0	-0	-20.61 4.45 1.44 -17.2242	-8.86535	175.448	0 -29.5102 0 -0	34.7362	-0	0 -19.2342 0 5.20376e-016	-2.65177e-015	112.205	0 -9.61712 0 1.22	4.38	-0	0 -3.29215 0 -0	7.12502	-0	0 -9.61712 0 25	15	-7.97034e-015	-8.46272 -9.62775 4.76248 -3.67096	-26.7792	-5.23357	1.00552e-005 -38.0331 0 -0	50.3871	-0	1.14428e-005 -43.2815 0 -36.8372	-82.6898	-37.0622	0 -14.1868 -3.08763 -0	-28.0155	-0	9.10607 -9.62778 4.76249 5.50819	-14.7194	9.92403	-1.01399e-005 -38.3535 0 -0	43.1152	-0	-1.12937e-005 -42.7176 0 34.8624	-83.5766	35.0319	0 -13.9965 -2.83857 -0	-42.357	-0
-2.81626	92.6719	30.4675	0.650722	2.63948	2.29979	0 0 0 1.02811	10.5348	-0.342346	-0.214371 12.3768 -1.12219 0.458663	12.8036	-1.21776	-0.00137213 12.3873 0.296195 -0.224978	7.66144	-0.846456	0.0883157 12.5016 0.82912 -0.910114	-1.42371	-2.12465	-1 10.1794 0.943522 5.7092	4.99876	-3.13571	0.667525 10.2797 -1.57149 1.85424	1.92913	-1.48194	0.0883157 12.5016 0.82912 -15	0	-0	20.61 4.45006 1.43784 17.6444	-14.3194	174.689	0 -30.3438 0 -0	46.0061	-0	0 -18.964 0 1.38146e-014	-1.73846e-015	-104.345	0 -9.48199 0 1.22245	4.37968	-2.58917e-014	0 -3.17138 0 -0	7.12502	-0	0 -9.48199 0 25	15	-1.36605e-015	0.0883157 12.5016 0.82912 15	0	-0	-20.61 4.45 1.44 -17.3104	-8.96873	175.298	0 -29.5102 0 -0	34.4549	-0	0 -19.2342 0 5.24456e-016	-2.66174e-015	112.293	0 -9.61712 0 1.22	4.38	-0	0 -3.29215 0 -0	7.12502	-0	0 -9.61712 0 25	15	-7.97034e-015	-8.46272 -9.62775 4.76248 -3.67227	-26.573	-5.22423	1.00552e-005 -38.0331 0 -0	50.3376	-0	1.14428e-005 -43.2815 0 -38.0107	-82.7721	-38.233	0 -14.1868 -3.08763 -0	-28.0192	-0	9.10607 -9.62778 4.76249 5.56965	-15.0642	9.99227	-1.01399e-005 -38.3535 0 -0	43.8535	-0	-1.12937e-005 -42.7176 0 34.0049	-83.2352	34.1908	0 -13.9965 -2.83857 -0	-42.4269	-0
-2.90517	92.6871	30.7086	0.704061	2.65873	2.45697	0 0 0 1.13674	10.52	-0.38867	-0.214371 12.3768 -1.12219 0.53959	12.809	-1.27794	-0.00137213 12.3873 0.296195 -0.204122	7.67587	-0.870763	0.0883157 12.5016 0.82912 -0.856953	-1.41237	-2.11993	-1 10.1794 0.943522 5.75059	5.04332	-3.13605	0.667525 10.2797 -1.57149 1.85815	1.94151	-1.48167	0.0883157 12.5016 0.82912 -15	0	-0	20.61 4.45006 1.43784 17.5078	-14.2214	174.639	0 -30.3438 0 -0	45.8959	-0	0 -18.964 0 1.38123e-014	-1.74771e-015	-104.423	0 -9.48199 0 1.22245	4.37968	-2.58917e-014	0 -3.17138 0 -0	7.12502	-0	0 -9.48199 0 25	15	-1.36605e-015	0.0883157 12.5016 0.82912 15	0	-0	-20.61 4.45 1.44 -17.3932	-9.06081	175.141	0 -29.5102 0 -0	34.1929	-0	0 -19.2342 0 5.27853e-016	-2.67001e-015	112.366	0 -9.61712 0 1.22	4.38	-0	0 -3.29215 0 -0	7.12502	-0	0 -9.61712 0 25	15	-7.97034e-015	-8.46272 -9.62775 4.76248 -3.66773	-26.357	-5.21526	1.00552e-005 -38.0331 0 -0	50.2841	-0	1.14428e-005 -43.2815 0 -39.2394	-82.8484	-39.4591	0 -14.1868 -3.08763 -0	-28.0334	-0	9.10607 -9.62778 4.76249 5.64533	-15.4344	10.0884	-1.01399e-005 -38.3535 0 -0	44.625	-0	-1.12937e-005 -42.7176 0 33.2014	-82.8962	33.4041	0 -13.9965 -2.83857 -0	-42.4266	-0
